#!OML:ASF F:\VICON\USERDATA\INSTALL\Justin_Nancy\Justin_Nancy.ASF
:FULLY-SPECIFIED
:DEGREES
96
root -10.2537 15.2792 -3.6003 -23.6773 58.8438 -32.5626
lowerback 18.6907 3.40543 4.75608
upperback 1.96311 6.3529 7.01982
thorax -8.66358 3.1161 3.28524
lowerneck -19.8799 -4.15408 -6.71688
upperneck 14.7687 -5.11771 7.15059
head 8.20849 -2.07686 2.84164
rclavicle -5.80451e-014 -9.93923e-015
rhumerus -37.3247 17.9095 -77.0721
rradius 116.464
rwrist -12.0339
rhand -15.9793 28.9125
rfingers 7.12502
rthumb 10.2201 -0.819234
lclavicle -5.80451e-014 -9.93923e-015
lhumerus -46.8387 -3.32821 95.3337
lradius 116.747
lwrist 16.0458
lhand -23.3766 6.81409
lfingers 7.12502
lthumb 3.07936 36.7716
rfemur 8.7722 -11.1778 19.0466
rtibia 31.3203
rfoot -22.4111 -14.5512
rtoes -34.4103
lfemur -63.179 14.3143 -32.2518
ltibia 64.1812
lfoot -2.44129 8.57866
ltoes 11.3886
97
root -10.0772 15.3054 -3.45082 -23.1524 59.256 -32.6423
lowerback 18.644 3.8006 4.8738
upperback 1.61846 6.83249 6.36472
thorax -8.93074 3.30523 2.37709
lowerneck -19.8466 -4.4115 -6.59918
upperneck 14.4173 -5.54102 7.43366
head 8.12294 -2.24417 2.85946
rclavicle 6.66923e-014 4.31363e-014
rhumerus -37.3848 17.1197 -77.2207
rradius 117.491
rwrist -13.0041
rhand -16.4924 29.6571
rfingers 7.12502
rthumb 9.72513 -0.0983657
lclavicle 6.66923e-014 4.31363e-014
lhumerus -47.5753 -4.58845 95.201
lradius 117.673
lwrist 16.2194
lhand -23.39 6.61231
lfingers 7.12502
lthumb 3.06643 36.57
rfemur 9.58131 -11.1416 18.999
rtibia 29.9691
rfoot -21.0618 -14.1424
rtoes -36.0455
lfemur -63.0642 14.2671 -33.5062
ltibia 63.247
lfoot -2.33428 10.0316
ltoes 11.9008
98
root -9.88172 15.3618 -3.28843 -22.9403 59.4629 -32.936
lowerback 18.4715 4.18783 4.90902
upperback 1.40995 7.27765 5.82083
thorax -8.98985 3.49139 1.66018
lowerneck -20.0386 -4.59463 -6.63578
upperneck 14.2257 -5.83449 7.82879
head 8.12917 -2.34166 2.95668
rclavicle -2.44008e-014 5.96354e-016
rhumerus -37.2221 16.1373 -77.1998
rradius 118.19
rwrist -12.7716
rhand -16.7786 30.1285
rfingers 7.12502
rthumb 9.44893 0.360367
lclavicle -2.44008e-014 5.96354e-016
lhumerus -48.1947 -5.74934 95.0373
lradius 118.314
lwrist 15.9017
lhand -22.7042 6.34023
lfingers 7.12502
lthumb 3.72873 36.2874
rfemur 10.6106 -10.8721 19.2101
rtibia 28.6454
rfoot -20.3175 -12.3103
rtoes -32.9297
lfemur -62.6752 14.2277 -33.8383
ltibia 62.8007
lfoot -3.31046 11.2205
ltoes 18.3387
99
root -9.67463 15.4259 -3.1313 -22.0512 59.69 -32.4855
lowerback 17.991 4.61579 4.32119
upperback 1.38185 7.61854 5.33557
thorax -8.75806 3.66633 1.41115
lowerneck -20.4241 -4.64851 -6.6832
upperneck 14.0414 -5.91136 8.09204
head 8.15039 -2.34656 3.0384
rclavicle -6.18655e-014 -5.11871e-014
rhumerus -37.0135 16.1472 -77.3785
rradius 119.171
rwrist -14.2554
rhand -18.2321 29.8813
rfingers 7.12502
rthumb 8.04633 0.0544627
lclavicle -6.18655e-014 -5.11871e-014
lhumerus -48.5147 -6.54341 95.16
lradius 118.693
lwrist 15.1083
lhand -21.688 5.88515
lfingers 7.12502
lthumb 4.70999 35.8128
rfemur 11.4818 -10.4964 18.9609
rtibia 27.5083
rfoot -19.0719 -10.817
rtoes -31.2608
lfemur -62.11 14.0782 -34.4176
ltibia 62.5274
lfoot -4.14011 12.3501
ltoes 21.4119
100
root -9.46412 15.4887 -2.99328 -21.2841 59.7843 -32.329
lowerback 17.5393 4.98436 4.04252
upperback 1.28364 7.95768 4.83762
thorax -8.57693 3.82673 0.982554
lowerneck -20.7174 -4.56254 -6.21865
upperneck 13.7652 -5.86343 7.92957
head 8.08443 -2.3108 2.90974
rclavicle 3.54582e-014 3.762e-014
rhumerus -36.9487 15.989 -77.9977
rradius 119.947
rwrist -14.3093
rhand -19.2077 29.6453
rfingers 7.12502
rthumb 7.10467 -0.215494
lclavicle 3.54582e-014 3.762e-014
lhumerus -48.7407 -7.18194 95.1912
lradius 118.8
lwrist 13.9011
lhand -21.2519 5.54775
lfingers 7.12502
lthumb 5.13108 35.4656
rfemur 11.9691 -10.2135 18.8238
rtibia 26.6173
rfoot -17.2299 -9.74403
rtoes -32.5475
lfemur -61.6926 13.8061 -34.7258
ltibia 62.4491
lfoot -4.79551 12.8182
ltoes 21.9575
101
root -9.25236 15.5248 -2.85391 -20.8194 59.8559 -32.5356
lowerback 17.156 5.27809 4.11216
upperback 1.09517 8.2791 4.31641
thorax -8.47717 3.96235 0.341208
lowerneck -20.5806 -4.26936 -5.20266
upperneck 13.2017 -5.59693 7.22721
head 7.80016 -2.21142 2.54276
rclavicle 4.96465e-014 3.97569e-014
rhumerus -37.4392 15.633 -79.3363
rradius 120.634
rwrist -13.4746
rhand -19.2974 29.9041
rfingers 7.12502
rthumb 7.01808 0.0404265
lclavicle 4.96465e-014 3.97569e-014
lhumerus -49.1101 -7.81313 94.9866
lradius 118.779
lwrist 12.9059
lhand -21.1702 5.06177
lfingers 7.12502
lthumb 5.21 34.9777
rfemur 12.4997 -10.1753 18.7821
rtibia 26.0294
rfoot -15.3712 -8.55742
rtoes -33.5935
lfemur -61.3227 13.4991 -34.7741
ltibia 62.4535
lfoot -4.94297 12.2758
ltoes 21.1027
102
root -9.03761 15.5563 -2.70552 -20.7712 59.8778 -33.1963
lowerback 16.8207 5.55824 4.38223
upperback 0.906142 8.63715 3.88201
thorax -8.38213 4.1118 -0.322499
lowerneck -20.6793 -4.10322 -4.60422
upperneck 12.8063 -5.42303 6.72182
head 7.64057 -2.15164 2.29782
rclavicle 5.18828e-014 4.85035e-014
rhumerus -38.0732 15.3802 -80.491
rradius 121.292
rwrist -12.7893
rhand -18.9802 30.0617
rfingers 7.12502
rthumb 7.3243 0.208453
lclavicle 5.18828e-014 4.85035e-014
lhumerus -49.3685 -8.41167 94.7532
lradius 118.603
lwrist 12.2555
lhand -20.3687 4.84206
lfingers 7.12502
lthumb 5.98391 34.7376
rfemur 12.9633 -9.88882 19.0767
rtibia 25.3803
rfoot -13.1434 -7.32709
rtoes -35.5446
lfemur -60.9941 13.1177 -34.4118
ltibia 62.6923
lfoot -4.87247 11.1654
ltoes 18.0618
103
root -8.80442 15.6106 -2.55044 -19.4849 60.1086 -32.5239
lowerback 16.138 5.976 3.54877
upperback 0.831337 8.95971 3.59376
thorax -8.15354 4.29883 -0.179491
lowerneck -21.7525 -4.67398 -6.33056
upperneck 13.4596 -5.8987 7.88479
head 8.16042 -2.31797 2.89637
rclavicle 6.47044e-014 1.41137e-014
rhumerus -38.3352 15.8514 -80.7709
rradius 121.686
rwrist -12.3553
rhand -19.4718 29.8203
rfingers 7.12502
rthumb 6.8497 -0.0488986
lclavicle 6.47044e-014 1.41137e-014
lhumerus -49.4239 -8.60064 95.0427
lradius 118.087
lwrist 11.383
lhand -18.4853 4.76421
lfingers 7.12502
lthumb 7.80195 34.6003
rfemur 13.3015 -9.2651 18.6155
rtibia 24.4398
rfoot -10.5473 -5.63653
rtoes -36.4478
lfemur -60.59 12.705 -34.5211
ltibia 63.1563
lfoot -5.29714 9.91495
ltoes 16.5966
104
root -8.57832 15.6551 -2.36873 -19.9712 59.9723 -33.5038
lowerback 15.6972 6.41632 3.17143
upperback 0.814912 9.46554 3.71219
thorax -8.00201 4.56792 0.0853799
lowerneck -21.7279 -4.59083 -5.5764
upperneck 12.943 -5.77527 6.7762
head 7.91058 -2.34166 2.41458
rclavicle 1.77912e-014 4.6118e-014
rhumerus -38.5491 16.1493 -80.8634
rradius 121.897
rwrist -12.2148
rhand -19.5623 29.9302
rfingers 7.12502
rthumb 6.76235 0.0581442
lclavicle 1.77912e-014 4.6118e-014
lhumerus -49.3617 -8.55169 95.5462
lradius 117.24
lwrist 10.0547
lhand -15.3785 4.9638
lfingers 7.12502
lthumb 10.7997 34.6662
rfemur 14.0071 -8.11777 19.3559
rtibia 23.3298
rfoot -7.85554 -4.10246
rtoes -35.8502
lfemur -60.1343 12.6069 -33.4301
ltibia 63.8879
lfoot -5.91059 8.93406
ltoes 16.4461
